<?xml version="1.0" encoding="UTF-8" standalone="no"?>
<!DOCTYPE svg PUBLIC "-//W3C//DTD SVG 1.1//EN" "http://www.w3.org/Graphics/SVG/1.1/DTD/svg11.dtd">
<svg width="100%" height="100%" viewBox="0 0 1200 433" version="1.1" xmlns="http://www.w3.org/2000/svg" xmlns:xlink="http://www.w3.org/1999/xlink" xml:space="preserve" xmlns:serif="http://www.serif.com/" style="fill-rule:evenodd;clip-rule:evenodd;stroke-linejoin:round;stroke-miterlimit:2;">
    <g transform="matrix(1,0,0,1,-65.9861,15.735)">
        <path d="M430.924,112.911C430.924,64.671 391.759,25.507 343.52,25.507L168.712,25.507C120.472,25.507 81.307,64.671 81.307,112.911L81.307,287.719C81.307,335.959 120.472,375.123 168.712,375.123L343.52,375.123C391.759,375.123 430.924,335.959 430.924,287.719L430.924,112.911ZM369.822,310.894L349.13,310.894L349.13,89.053C356.911,86.874 362.632,79.733 362.632,71.283C362.632,64.958 357.478,59.812 351.142,59.812L339.145,59.812L161.091,59.812C154.755,59.812 149.601,64.957 149.601,71.282C149.601,79.732 155.322,86.873 163.103,89.052L163.103,310.894L138.542,310.894C132.199,310.894 127.039,316.039 127.039,322.364C127.039,332.539 135.347,340.818 145.561,340.818L362.803,340.818C373.017,340.818 381.325,332.539 381.325,322.365C381.325,316.04 376.165,310.894 369.822,310.894ZM362.803,330.833L145.561,330.833C140.854,330.833 137.024,327.034 137.024,322.365C137.024,321.546 137.704,320.879 138.542,320.879L299.395,320.879C302.153,320.879 304.388,318.645 304.388,315.887C304.388,313.129 302.153,310.894 299.395,310.894L274.422,310.894L274.422,224.536C274.422,221.778 272.187,219.543 269.429,219.543L242.802,219.543C240.044,219.543 237.81,221.778 237.81,224.536L237.81,310.894L173.087,310.894L173.087,89.806L191.311,89.806C194.069,89.806 196.303,87.572 196.303,84.814C196.303,82.056 194.069,79.821 191.311,79.821L168.095,79.821L168.095,79.751C163.402,79.751 159.585,75.952 159.585,71.283C159.585,70.464 160.261,69.798 161.09,69.798L351.142,69.798C351.972,69.798 352.647,70.464 352.647,71.283C352.647,75.952 348.829,79.751 344.137,79.751L344.137,79.821L214.702,79.821C211.944,79.821 209.71,82.056 209.71,84.814C209.71,87.572 211.944,89.806 214.702,89.806L339.144,89.806L339.144,310.894L322.673,310.894C319.915,310.894 317.68,313.129 317.68,315.887C317.68,318.645 319.915,320.879 322.673,320.879L369.822,320.879C370.659,320.879 371.34,321.546 371.34,322.365C371.34,327.034 367.51,330.833 362.803,330.833ZM247.795,249.498L264.437,249.498L264.437,310.894L247.795,310.894L247.795,249.498ZM329.339,285.633L329.339,224.536C329.339,221.779 327.105,219.544 324.347,219.544L297.72,219.544C294.962,219.544 292.727,221.779 292.727,224.536L292.727,285.633C292.727,288.391 294.962,290.625 297.72,290.625L324.347,290.625C327.105,290.625 329.339,288.39 329.339,285.633ZM214.702,219.543L188.076,219.543C185.318,219.543 183.083,221.778 183.083,224.536L183.083,285.632C183.083,288.39 185.318,290.625 188.076,290.625L214.702,290.625C217.46,290.625 219.695,288.39 219.695,285.632L219.695,224.536C219.695,221.779 217.46,219.543 214.702,219.543ZM193.068,280.64L193.068,249.499L209.71,249.499L209.71,280.64L193.068,280.64ZM302.713,280.64L302.713,249.499L319.354,249.499L319.354,280.64L302.713,280.64ZM264.437,239.513L247.795,239.513L247.795,229.528L264.437,229.528L264.437,239.513ZM209.71,229.528L209.71,239.513L193.068,239.513L193.068,229.528L209.71,229.528ZM319.354,229.528L319.354,239.513L302.713,239.513L302.713,229.528L319.354,229.528ZM214.702,159.676L188.076,159.676C185.318,159.676 183.083,161.91 183.083,164.668L183.083,204.608C183.083,207.366 185.318,209.601 188.076,209.601L214.702,209.601C217.46,209.601 219.695,207.366 219.695,204.608L219.695,164.668C219.695,161.91 217.46,159.676 214.702,159.676ZM269.429,159.676L242.802,159.676C240.044,159.676 237.81,161.91 237.81,164.668L237.81,204.608C237.81,207.366 240.044,209.601 242.802,209.601L269.429,209.601C272.187,209.601 274.422,207.366 274.422,204.608L274.422,164.668C274.422,161.91 272.187,159.676 269.429,159.676ZM297.72,209.601L324.347,209.601C327.105,209.601 329.339,207.366 329.339,204.608L329.339,164.668C329.339,161.91 327.105,159.676 324.347,159.676L297.72,159.676C294.962,159.676 292.727,161.91 292.727,164.668L292.727,204.608C292.727,207.365 294.963,209.601 297.72,209.601ZM193.068,199.616L193.068,189.631L209.71,189.631L209.71,199.616L193.068,199.616ZM247.795,199.616L247.795,189.631L264.437,189.631L264.437,199.616L247.795,199.616ZM302.713,199.616L302.713,189.631L319.354,189.631L319.354,199.616L302.713,199.616ZM209.71,169.661L209.71,179.646L193.068,179.646L193.068,169.661L209.71,169.661ZM264.437,169.661L264.437,179.646L247.795,179.646L247.795,169.661L264.437,169.661ZM319.354,169.661L319.354,179.646L302.713,179.646L302.713,169.661L319.354,169.661ZM214.702,99.874L188.076,99.874C185.318,99.874 183.083,102.108 183.083,104.866L183.083,144.807C183.083,147.564 185.318,149.799 188.076,149.799L214.702,149.799C217.46,149.799 219.695,147.564 219.695,144.807L219.695,104.866C219.695,102.108 217.46,99.874 214.702,99.874ZM269.429,99.874L242.802,99.874C240.044,99.874 237.81,102.108 237.81,104.866L237.81,144.807C237.81,147.564 240.044,149.799 242.802,149.799L269.429,149.799C272.187,149.799 274.422,147.564 274.422,144.807L274.422,104.866C274.422,102.108 272.187,99.874 269.429,99.874ZM297.72,149.799L324.347,149.799C327.105,149.799 329.339,147.564 329.339,144.807L329.339,104.866C329.339,102.108 327.105,99.874 324.347,99.874L297.72,99.874C294.962,99.874 292.727,102.108 292.727,104.866L292.727,144.807C292.727,147.564 294.963,149.799 297.72,149.799ZM193.068,139.814L193.068,129.829L209.71,129.829L209.71,139.814L193.068,139.814ZM247.795,139.814L247.795,129.829L264.437,129.829L264.437,139.814L247.795,139.814ZM302.713,139.814L302.713,129.829L319.354,129.829L319.354,139.814L302.713,139.814ZM209.71,109.859L209.71,119.844L193.068,119.844L193.068,109.859L209.71,109.859ZM264.437,109.859L264.437,119.844L247.795,119.844L247.795,109.859L264.437,109.859ZM319.354,109.859L319.354,119.844L302.713,119.844L302.713,109.859L319.354,109.859Z" style="fill:rgb(254,60,114);"/>
    </g>
    <g transform="matrix(0.948271,0,0,0.948271,19.9285,37.7678)">
        <g transform="matrix(288,0,0,288,375.808,287.553)">
            <path d="M0.28,0C0.209,0 0.155,-0.02 0.118,-0.06C0.081,-0.099 0.062,-0.152 0.062,-0.219L0.062,-0.694L0.194,-0.694L0.194,-0.221C0.194,-0.189 0.201,-0.166 0.214,-0.152C0.227,-0.137 0.249,-0.13 0.281,-0.13L0.49,-0.13L0.49,0L0.28,0Z" style="fill:white;fill-rule:nonzero;"/>
        </g>
        <g transform="matrix(288,0,0,288,507.424,287.553)">
            <path d="M0.289,-0.109C0.306,-0.109 0.323,-0.113 0.338,-0.12C0.353,-0.127 0.367,-0.136 0.379,-0.15C0.39,-0.163 0.399,-0.178 0.406,-0.196C0.413,-0.214 0.416,-0.234 0.416,-0.256C0.416,-0.278 0.413,-0.298 0.406,-0.317C0.399,-0.336 0.39,-0.352 0.379,-0.365C0.367,-0.378 0.353,-0.389 0.338,-0.396C0.323,-0.403 0.306,-0.407 0.289,-0.407C0.272,-0.407 0.255,-0.403 0.24,-0.396C0.224,-0.389 0.21,-0.378 0.199,-0.365C0.188,-0.352 0.179,-0.336 0.172,-0.317C0.165,-0.298 0.162,-0.278 0.162,-0.256C0.162,-0.234 0.165,-0.214 0.172,-0.196C0.179,-0.178 0.188,-0.163 0.199,-0.15C0.21,-0.136 0.224,-0.127 0.24,-0.12C0.255,-0.113 0.272,-0.109 0.289,-0.109ZM0.289,-0.528C0.325,-0.528 0.359,-0.521 0.39,-0.508C0.421,-0.494 0.449,-0.475 0.473,-0.451C0.496,-0.426 0.515,-0.398 0.529,-0.365C0.542,-0.331 0.549,-0.296 0.549,-0.257C0.549,-0.218 0.542,-0.183 0.529,-0.15C0.515,-0.117 0.496,-0.089 0.473,-0.065C0.449,-0.041 0.421,-0.022 0.39,-0.009C0.359,0.005 0.325,0.012 0.289,0.012C0.253,0.012 0.219,0.005 0.188,-0.009C0.157,-0.022 0.129,-0.041 0.106,-0.065C0.083,-0.089 0.064,-0.117 0.051,-0.15C0.037,-0.183 0.03,-0.218 0.03,-0.257C0.03,-0.296 0.037,-0.331 0.051,-0.365C0.064,-0.398 0.083,-0.426 0.106,-0.451C0.129,-0.475 0.157,-0.494 0.188,-0.508C0.219,-0.521 0.253,-0.528 0.289,-0.528Z" style="fill:white;fill-rule:nonzero;"/>
        </g>
        <g transform="matrix(288,0,0,288,659.776,287.553)">
            <path d="M0.427,-0.256C0.427,-0.277 0.424,-0.296 0.417,-0.314C0.409,-0.332 0.4,-0.348 0.388,-0.361C0.376,-0.374 0.362,-0.385 0.346,-0.393C0.33,-0.4 0.313,-0.404 0.295,-0.404C0.277,-0.404 0.26,-0.4 0.244,-0.393C0.228,-0.386 0.214,-0.375 0.202,-0.362C0.19,-0.349 0.181,-0.333 0.174,-0.315C0.167,-0.297 0.163,-0.277 0.163,-0.256C0.163,-0.235 0.167,-0.216 0.174,-0.199C0.181,-0.181 0.19,-0.166 0.202,-0.153C0.214,-0.139 0.228,-0.129 0.244,-0.122C0.26,-0.115 0.277,-0.111 0.295,-0.111C0.313,-0.111 0.33,-0.115 0.346,-0.123C0.362,-0.13 0.376,-0.14 0.388,-0.154C0.4,-0.167 0.409,-0.182 0.417,-0.2C0.424,-0.217 0.427,-0.236 0.427,-0.256ZM0.559,-0.257C0.559,-0.22 0.553,-0.185 0.54,-0.152C0.527,-0.119 0.508,-0.091 0.485,-0.067C0.462,-0.042 0.434,-0.023 0.402,-0.009C0.369,0.005 0.334,0.012 0.295,0.012C0.256,0.012 0.22,0.005 0.188,-0.009C0.155,-0.023 0.127,-0.042 0.104,-0.067C0.081,-0.091 0.063,-0.119 0.05,-0.152C0.037,-0.185 0.03,-0.22 0.03,-0.257C0.03,-0.294 0.037,-0.328 0.05,-0.361C0.063,-0.394 0.08,-0.422 0.103,-0.447C0.125,-0.472 0.151,-0.491 0.181,-0.505C0.21,-0.519 0.242,-0.526 0.276,-0.526C0.337,-0.526 0.388,-0.506 0.427,-0.466L0.427,-0.744L0.559,-0.744L0.559,-0.257Z" style="fill:white;fill-rule:nonzero;"/>
        </g>
        <g transform="matrix(288,0,0,288,819.616,287.553)">
            <path d="M0.427,-0.256C0.427,-0.277 0.424,-0.296 0.417,-0.314C0.409,-0.332 0.4,-0.348 0.388,-0.361C0.376,-0.374 0.362,-0.385 0.346,-0.393C0.33,-0.4 0.313,-0.404 0.295,-0.404C0.277,-0.404 0.26,-0.4 0.244,-0.393C0.228,-0.386 0.214,-0.375 0.202,-0.362C0.19,-0.349 0.181,-0.333 0.174,-0.315C0.167,-0.297 0.163,-0.277 0.163,-0.256C0.163,-0.235 0.167,-0.216 0.174,-0.199C0.181,-0.181 0.19,-0.166 0.202,-0.153C0.214,-0.139 0.228,-0.129 0.244,-0.122C0.26,-0.115 0.277,-0.111 0.295,-0.111C0.313,-0.111 0.33,-0.115 0.346,-0.123C0.362,-0.13 0.376,-0.14 0.388,-0.154C0.4,-0.167 0.409,-0.182 0.417,-0.2C0.424,-0.217 0.427,-0.236 0.427,-0.256ZM0.559,-0.026C0.559,0.017 0.553,0.055 0.541,0.09C0.528,0.124 0.511,0.153 0.488,0.177C0.464,0.201 0.437,0.22 0.404,0.233C0.371,0.246 0.333,0.252 0.292,0.252C0.261,0.252 0.231,0.248 0.203,0.239C0.175,0.23 0.15,0.218 0.128,0.203C0.106,0.187 0.087,0.168 0.072,0.146C0.057,0.124 0.047,0.099 0.042,0.072L0.186,0.072C0.19,0.082 0.196,0.091 0.205,0.098C0.213,0.105 0.222,0.111 0.232,0.116C0.242,0.121 0.252,0.124 0.263,0.126C0.273,0.128 0.283,0.129 0.292,0.129C0.339,0.129 0.373,0.115 0.395,0.087C0.416,0.059 0.427,0.022 0.427,-0.024L0.427,-0.047C0.408,-0.028 0.385,-0.013 0.36,-0.004C0.334,0.006 0.306,0.011 0.277,0.011C0.243,0.011 0.211,0.004 0.181,-0.01C0.151,-0.024 0.125,-0.043 0.103,-0.068C0.08,-0.092 0.063,-0.12 0.05,-0.153C0.037,-0.185 0.03,-0.22 0.03,-0.257C0.03,-0.294 0.037,-0.329 0.05,-0.363C0.063,-0.396 0.081,-0.424 0.104,-0.449C0.127,-0.473 0.155,-0.492 0.188,-0.507C0.22,-0.521 0.256,-0.528 0.295,-0.528C0.334,-0.528 0.369,-0.521 0.402,-0.507C0.434,-0.492 0.462,-0.473 0.485,-0.449C0.508,-0.424 0.527,-0.396 0.54,-0.363C0.553,-0.329 0.559,-0.294 0.559,-0.257L0.559,-0.026Z" style="fill:white;fill-rule:nonzero;"/>
        </g>
        <g transform="matrix(288,0,0,288,981.472,287.553)">
            <path d="M0.395,-0.366C0.383,-0.381 0.368,-0.392 0.351,-0.4C0.334,-0.408 0.314,-0.412 0.293,-0.412C0.274,-0.412 0.256,-0.408 0.239,-0.401C0.222,-0.394 0.208,-0.384 0.196,-0.371C0.183,-0.358 0.173,-0.342 0.166,-0.324C0.158,-0.306 0.154,-0.286 0.153,-0.264L0.395,-0.366ZM0.543,-0.164C0.528,-0.111 0.499,-0.069 0.456,-0.037C0.413,-0.004 0.359,0.012 0.294,0.012C0.257,0.012 0.223,0.005 0.191,-0.009C0.159,-0.023 0.131,-0.042 0.107,-0.067C0.083,-0.091 0.064,-0.119 0.051,-0.152C0.037,-0.185 0.03,-0.22 0.03,-0.257C0.03,-0.294 0.037,-0.329 0.051,-0.363C0.064,-0.396 0.083,-0.424 0.107,-0.449C0.131,-0.473 0.159,-0.492 0.191,-0.507C0.223,-0.521 0.257,-0.528 0.294,-0.528C0.325,-0.528 0.354,-0.523 0.382,-0.514C0.41,-0.504 0.435,-0.49 0.458,-0.472C0.48,-0.453 0.499,-0.431 0.515,-0.404C0.53,-0.377 0.541,-0.347 0.547,-0.312L0.183,-0.159C0.196,-0.142 0.212,-0.128 0.231,-0.119C0.25,-0.109 0.27,-0.104 0.293,-0.104C0.314,-0.104 0.335,-0.109 0.355,-0.119C0.375,-0.128 0.391,-0.143 0.402,-0.164L0.543,-0.164Z" style="fill:white;fill-rule:nonzero;"/>
        </g>
        <g transform="matrix(288,0,0,288,1133.82,287.553)">
            <path d="M0.328,-0.401C0.286,-0.408 0.252,-0.402 0.227,-0.383C0.201,-0.363 0.188,-0.335 0.188,-0.298L0.188,0L0.056,0L0.056,-0.298C0.056,-0.335 0.062,-0.368 0.075,-0.398C0.087,-0.428 0.105,-0.453 0.128,-0.474C0.151,-0.495 0.18,-0.51 0.214,-0.519C0.247,-0.528 0.285,-0.53 0.328,-0.525L0.328,-0.401Z" style="fill:white;fill-rule:nonzero;"/>
        </g>
    </g>
</svg>
